<?xml version="1.0" encoding="UTF-8"?>
<svg width="1200pt" height="1200pt" version="1.1" viewBox="0 0 1200 1200" xmlns="http://www.w3.org/2000/svg">
 <g fill="#12b0fb">
  <path d="m600 100c-13.262 0-25.98 5.2695-35.355 14.645s-14.645 22.094-14.645 35.355v900c0 17.863 9.5312 34.371 25 43.301 15.469 8.9336 34.531 8.9336 50 0 15.469-8.9297 25-25.438 25-43.301v-900c0-13.262-5.2695-25.98-14.645-35.355s-22.094-14.645-35.355-14.645z"/>
  <path d="m400 250c-13.262 0-25.98 5.2695-35.355 14.645s-14.645 22.094-14.645 35.355v600c0 17.863 9.5312 34.371 25 43.301 15.469 8.9336 34.531 8.9336 50 0 15.469-8.9297 25-25.438 25-43.301v-600c0-13.262-5.2695-25.98-14.645-35.355s-22.094-14.645-35.355-14.645z"/>
  <path d="m800 250c-13.262 0-25.98 5.2695-35.355 14.645s-14.645 22.094-14.645 35.355v600c0 17.863 9.5312 34.371 25 43.301 15.469 8.9336 34.531 8.9336 50 0 15.469-8.9297 25-25.438 25-43.301v-600c0-13.262-5.2695-25.98-14.645-35.355s-22.094-14.645-35.355-14.645z"/>
  <path d="m1e3 400c-13.262 0-25.98 5.2695-35.355 14.645s-14.645 22.094-14.645 35.355v300c0 17.863 9.5312 34.371 25 43.301 15.469 8.9336 34.531 8.9336 50 0 15.469-8.9297 25-25.438 25-43.301v-300c0-13.262-5.2695-25.98-14.645-35.355s-22.094-14.645-35.355-14.645z"/>
  <path d="m200 400c-13.262 0-25.98 5.2695-35.355 14.645s-14.645 22.094-14.645 35.355v300c0 17.863 9.5312 34.371 25 43.301 15.469 8.9336 34.531 8.9336 50 0 15.469-8.9297 25-25.438 25-43.301v-300c0-13.262-5.2695-25.98-14.645-35.355s-22.094-14.645-35.355-14.645z"/>
 </g>
</svg>
